<svg width="28" height="53" viewBox="0 0 28 53" fill="none" xmlns="http://www.w3.org/2000/svg">
<path d="M14.5051 15.6118C10.1996 15.611 6.6961 12.1246 6.68411 7.82766C6.67213 3.58205 10.1559 0.0537501 14.3356 0.000679991C18.8483 -0.0566699 22.3167 3.52128 22.3209 7.8268C22.3244 12.1229 18.8081 15.6127 14.5051 15.6118Z" fill="white"/>
<path d="M27.2023 32.4465C26.7101 29.1852 25.8567 26.0318 24.3596 23.0804C23.3924 21.1733 22.1743 19.4597 20.3622 18.2434C19.2195 17.4756 17.9681 17.0724 16.6165 17.0048C16.5053 16.9988 16.3931 16.9954 16.2801 16.9945C16.085 17.0065 15.8898 17.0536 15.6835 17.1469C14.3773 17.7409 13.0523 17.7409 11.7349 17.1289C11.5518 17.0433 11.3309 16.9937 11.1263 16.9937H11.0065C9.50343 16.9979 8.12018 17.402 6.86704 18.2434C5.05496 19.4597 3.83691 21.1733 2.86967 23.0804C1.37172 26.0318 0.519179 29.1852 0.0269971 32.4465C-0.151044 33.6243 0.565403 34.618 1.76633 34.8183C2.78835 34.9878 3.82921 34.1806 4.01752 33.0953C4.03636 32.9883 4.05519 32.8821 4.07231 32.776C4.10055 32.6177 4.12709 32.4593 4.15619 32.3009C4.26918 31.6658 4.38901 31.0315 4.53967 30.405C5.07037 28.2111 5.77483 26.078 6.91241 24.1102C6.94066 24.0631 6.9689 24.0152 7.00058 23.9698C7.05279 23.8868 7.11014 23.8063 7.16321 23.7233C7.18974 23.7387 7.21542 23.7541 7.24196 23.7686V23.8191V24.7564C7.24196 25.7665 7.2411 26.7748 7.24367 27.7849V33.6363H7.24538C7.24281 36.3813 7.24025 39.1256 7.24025 41.8707C7.31985 43.4996 7.23597 45.1379 7.27363 46.7702C7.33183 49.3381 8.53961 51.395 10.5306 52.2442C10.7566 52.3409 10.9928 52.4222 11.2393 52.4864C12.2177 52.7423 13.2911 52.6867 14.3217 52.6841C15.2299 52.6816 16.0482 52.5369 16.762 52.2621C18.5733 51.5679 19.7186 50.0486 19.9822 47.9249C19.9916 43.1615 19.9865 38.3997 19.9831 33.6363H19.9848V27.7849C19.9856 27.582 19.9856 27.38 19.9856 27.1771C19.9873 26.4821 19.9865 25.7887 19.9865 25.0937V23.7695C20.013 23.7541 20.0387 23.7387 20.0652 23.7241C20.1491 23.8534 20.239 23.9784 20.316 24.111C21.4536 26.078 22.1589 28.2111 22.6888 30.4058C22.8719 31.1634 23.0089 31.932 23.1424 32.7007C23.1655 32.8325 23.1878 32.9643 23.2109 33.0961C23.3992 34.1815 24.4401 34.9887 25.4621 34.8192C26.663 34.618 27.3803 33.6243 27.2023 32.4465Z" fill="white"/>
</svg>
