<svg width="21" height="21" viewBox="0 0 21 21" fill="none" xmlns="http://www.w3.org/2000/svg">
<g clip-path="url(#clip0_108_320)">
<path d="M16.2649 13.0353L12.4507 16.8501L14.0793 18.4785L17.8935 14.6637L16.2649 13.0353Z" fill="white"/>
<path d="M11.4517 17.8556C11.4102 17.8971 11.3687 17.9593 11.3687 18.0216L11.0367 19.4946C10.9745 19.7436 11.2027 19.9718 11.4517 19.9095L12.9247 19.5776C12.9869 19.5568 13.0492 19.5361 13.0907 19.4946L13.5471 19.0382L11.9288 17.4199L11.4517 17.8556Z" fill="white"/>
<path d="M19.2111 12.8348L18.07 11.7145C17.9455 11.59 17.7173 11.59 17.5928 11.7145L16.8252 12.4821L18.4434 14.1003L19.2111 13.3327C19.3563 13.1875 19.3563 12.98 19.2111 12.8348Z" fill="white"/>
<path d="M15.2899 12.6276V1.03007C15.2899 0.573638 14.9164 0.200195 14.46 0.200195H2.50981C2.05337 0.200195 1.67993 0.573638 1.67993 1.03007V15.2624C1.67993 15.7188 2.05337 16.0923 2.50981 16.0923H11.8459L15.2899 12.6276ZM7.42681 3.00102H12.1363C12.406 3.00102 12.6135 3.22923 12.6135 3.4782C12.6135 3.7479 12.3853 3.95537 12.1363 3.95537H7.42681C7.1571 3.95537 6.94963 3.72716 6.94963 3.4782C6.92888 3.20849 7.1571 3.00102 7.42681 3.00102ZM7.42681 6.0923H12.1363C12.406 6.0923 12.6135 6.32051 12.6135 6.56947C12.6135 6.83918 12.3853 7.04665 12.1363 7.04665H7.42681C7.1571 7.04665 6.94963 6.81844 6.94963 6.56947C6.92888 6.32051 7.1571 6.0923 7.42681 6.0923ZM7.42681 9.22507H12.1363C12.406 9.22507 12.6135 9.45328 12.6135 9.70225C12.6135 9.97196 12.3853 10.1794 12.1363 10.1794H7.42681C7.1571 10.1794 6.94963 9.95121 6.94963 9.70225C6.92888 9.43254 7.1571 9.22507 7.42681 9.22507ZM5.18615 13.3122H4.83345C4.56374 13.3122 4.35627 13.084 4.35627 12.835C4.35627 12.5653 4.58449 12.3578 4.83345 12.3578H5.18615C5.45586 12.3578 5.66333 12.5861 5.66333 12.835C5.68407 13.084 5.45586 13.3122 5.18615 13.3122ZM5.18615 10.1794H4.83345C4.56374 10.1794 4.35627 9.95121 4.35627 9.70225C4.35627 9.43254 4.58449 9.22507 4.83345 9.22507H5.18615C5.45586 9.22507 5.66333 9.45328 5.66333 9.70225C5.68407 9.97196 5.45586 10.1794 5.18615 10.1794ZM5.18615 7.0674H4.83345C4.56374 7.0674 4.35627 6.83918 4.35627 6.59022C4.35627 6.32051 4.58449 6.11304 4.83345 6.11304H5.18615C5.45586 6.11304 5.66333 6.34126 5.66333 6.59022C5.68407 6.85993 5.45586 7.0674 5.18615 7.0674ZM5.18615 3.97612H4.83345C4.56374 3.97612 4.35627 3.7479 4.35627 3.49894C4.35627 3.22923 4.58449 3.02177 4.83345 3.02177H5.18615C5.45586 3.02177 5.66333 3.24998 5.66333 3.49894C5.68407 3.7479 5.45586 3.97612 5.18615 3.97612ZM6.92888 12.8143C6.92888 12.5446 7.1571 12.3371 7.40606 12.3371H12.1156C12.3853 12.3371 12.5928 12.5653 12.5928 12.8143C12.5928 13.084 12.3646 13.2914 12.1156 13.2914H7.42681C7.1571 13.3122 6.92888 13.084 6.92888 12.8143Z" fill="white"/>
</g>
<defs>
<clipPath id="clip0_108_320">
<rect width="20.16" height="20.16" fill="white" transform="translate(0 0.200195)"/>
</clipPath>
</defs>
</svg>
