<svg width="18" height="17" viewBox="0 0 18 17" fill="none" xmlns="http://www.w3.org/2000/svg">
<path fill-rule="evenodd" clip-rule="evenodd" d="M3.49796 7.72021H2.28514C1.80465 7.72021 1.39095 8.05937 1.29672 8.53053L0.0199172 14.9145C-0.104831 15.5383 0.372247 16.1202 1.00834 16.1202H14.4345C15.1573 16.1202 15.6452 15.3818 15.3617 14.7169L12.64 8.3329C12.4816 7.96133 12.1167 7.72021 11.7127 7.72021H10.8906C10.0478 8.74035 8.7058 9.40021 7.1943 9.40021C5.68281 9.40021 4.34084 8.74035 3.49796 7.72021Z" fill="white"/>
<ellipse cx="7.19422" cy="4.36016" rx="4.62" ry="4.2" fill="white"/>
<rect x="14.699" y="0.160156" width="1.68" height="4.2" rx="0.42" fill="white"/>
<rect x="13.439" y="3.1001" width="1.68" height="4.2" rx="0.42" transform="rotate(-90 13.439 3.1001)" fill="white"/>
</svg>
