<svg width="18" height="18" viewBox="0 0 18 18" fill="none" xmlns="http://www.w3.org/2000/svg">
<path d="M8.15597 0.679816C7.90758 0.679816 7.68149 0.796733 7.5353 0.959143C7.3891 1.12155 7.30798 1.32026 7.26924 1.52494C7.26924 1.52504 7.26924 1.52514 7.26924 1.52524L7.02072 2.83915C6.71314 2.94119 6.41419 3.06558 6.12492 3.21169L5.0184 2.45721C4.84639 2.33995 4.64849 2.2566 4.43025 2.2451C4.21179 2.23362 3.96947 2.31136 3.79406 2.48678L2.48753 3.79331C2.3119 3.9689 2.23443 4.21137 2.24577 4.42958C2.25703 4.64779 2.34027 4.84618 2.45757 5.01835L3.20878 6.12014C3.06307 6.41088 2.93931 6.71133 2.83803 7.02037L1.52537 7.2688C1.32069 7.30753 1.1216 7.38868 0.959184 7.53486C0.796768 7.68106 0.679932 7.90756 0.679932 8.15593V10.0037C0.679932 10.252 0.796768 10.4781 0.959184 10.6243C1.1216 10.7705 1.32069 10.852 1.52537 10.8907L2.84013 11.1397C2.94218 11.447 3.06632 11.7457 3.21235 12.0347L2.45757 13.1412C2.34018 13.3134 2.25711 13.5117 2.24577 13.7299C2.2345 13.9482 2.31182 14.1906 2.48753 14.3662L3.79406 15.6727C3.96968 15.8483 4.21202 15.9255 4.43025 15.9141C4.64847 15.9027 4.84656 15.8194 5.01871 15.7021L6.1205 14.9511C6.41131 15.0968 6.71193 15.2204 7.02103 15.3216L7.26947 16.6343C7.30821 16.8389 7.3894 17.038 7.53561 17.2004C7.6818 17.3629 7.90789 17.4797 8.15628 17.4797H10.0043C10.2527 17.4797 10.4788 17.3629 10.625 17.2004C10.7711 17.0381 10.8524 16.8392 10.8911 16.6346V16.6341L11.1399 15.3203C11.4475 15.2182 11.7464 15.0939 12.0357 14.9478L13.1419 15.7019C13.314 15.8193 13.5121 15.9025 13.7303 15.914C13.9485 15.9254 14.1912 15.8482 14.3668 15.6726L15.6734 14.366C15.849 14.1904 15.9263 13.9477 15.9148 13.7295C15.9034 13.5112 15.8201 13.3131 15.7027 13.141L14.9515 12.0393C15.0973 11.7485 15.2209 11.4481 15.3222 11.139L16.6349 10.8906C16.8396 10.8518 17.0387 10.7704 17.2011 10.6242C17.3635 10.478 17.4803 10.2519 17.4803 10.0035V8.15572C17.4803 7.90734 17.3635 7.68093 17.2011 7.53474C17.0388 7.38862 16.8398 7.30744 16.6352 7.26869L15.3211 7.01994C15.2191 6.71252 15.0946 6.41379 14.9485 6.12467L15.703 5.01823C15.8203 4.84614 15.9036 4.64801 15.9151 4.42977C15.9267 4.21153 15.8491 3.96883 15.6734 3.79319L14.3671 2.48666C14.1915 2.31111 13.9489 2.23351 13.7306 2.24498C13.5124 2.25651 13.3145 2.33988 13.1425 2.45709L12.0407 3.20831C11.7499 3.06262 11.4493 2.93902 11.1402 2.83778L10.8913 1.52481C10.8526 1.32015 10.7715 1.12143 10.6253 0.959015C10.4791 0.7966 10.253 0.679688 10.0046 0.679688L8.15597 0.679816ZM9.08002 5.89748C10.8412 5.89748 12.2619 7.31837 12.2618 9.07959C12.2618 10.8407 10.8412 12.2617 9.08002 12.2617C7.31879 12.2617 5.89789 10.8408 5.89783 9.07959C5.89783 7.31828 7.31872 5.89742 9.08002 5.89748Z" fill="white"/>
</svg>
